<?xml version="1.0" standalone="no"?>
<!DOCTYPE svg PUBLIC "-//W3C//DTD SVG 20010904//EN"
 "http://www.w3.org/TR/2001/REC-SVG-20010904/DTD/svg10.dtd">
<svg version="1.0" xmlns="http://www.w3.org/2000/svg"
 width="132.000000pt" height="148.000000pt" viewBox="0 0 132.000000 148.000000"
 preserveAspectRatio="xMidYMid meet">

<g transform="translate(0.000000,148.000000) scale(0.100000,-0.100000)"
fill="#000000" stroke="none">
<path d="M0 1469 c0 -5 5 -7 10 -4 5 3 10 8 10 11 0 2 -4 4 -10 4 -5 0 -10 -5
-10 -11z"/>
<path d="M750 1315 c0 -15 4 -24 10 -20 6 3 10 12 10 20 0 8 -4 17 -10 20 -6
4 -10 -5 -10 -20z"/>
<path d="M775 1299 c-12 -18 3 -22 20 -5 14 14 14 16 1 16 -8 0 -18 -5 -21
-11z"/>
<path d="M884 1258 c-12 -5 -27 -21 -35 -34 -14 -27 -33 -30 -69 -9 -25 14
-80 20 -80 9 0 -4 7 -12 16 -18 16 -12 30 -63 41 -147 4 -35 -1 -60 -20 -108
-29 -72 -30 -72 71 24 70 65 92 109 97 193 2 37 7 75 10 85 8 19 0 21 -31 5z"/>
<path d="M375 1184 c-24 -26 -25 -26 -59 -10 -44 21 -49 20 -34 -4 7 -11 18
-20 25 -20 7 0 10 -6 7 -13 -3 -8 2 -19 9 -26 12 -9 16 -8 21 4 4 11 13 14 32
9 25 -6 26 -5 20 20 -3 14 -2 26 3 26 5 0 11 9 14 20 7 28 -9 25 -38 -6z"/>
<path d="M562 1194 c-7 -13 -13 -14 -31 -5 -20 11 -21 11 -10 -7 17 -28 57
-24 55 5 -1 27 -2 28 -14 7z"/>
<path d="M958 1116 c-6 -69 -33 -106 -140 -191 -105 -83 -131 -119 -136 -194
-2 -33 1 -75 8 -95 14 -43 95 -135 156 -177 l43 -30 -23 48 c-39 79 -42 108
-12 138 22 22 34 25 93 25 37 0 73 4 78 8 12 8 39 61 40 77 0 6 4 13 9 17 6 4
4 13 -4 23 -12 14 -12 18 1 26 8 5 20 9 27 9 18 0 15 12 -14 51 -46 61 -55 92
-43 147 7 27 9 61 5 76 -6 26 -62 96 -76 96 -4 0 -10 -24 -12 -54z"/>
<path d="M503 1104 c0 -13 5 -24 11 -24 6 0 5 -4 -3 -9 -8 -5 -11 -16 -7 -26
5 -14 9 -15 20 -6 24 20 30 -7 10 -45 -10 -19 -22 -34 -26 -34 -4 0 -24 11
-44 25 -45 31 -82 41 -96 27 -7 -7 -3 -17 11 -31 12 -12 21 -26 21 -32 0 -7
10 -9 27 -4 23 5 25 4 14 -9 -7 -8 -19 -37 -25 -63 -11 -43 -15 -48 -37 -44
-52 10 -122 6 -126 -6 -3 -7 2 -13 11 -13 8 0 24 -10 36 -22 16 -17 23 -19 32
-10 19 19 30 14 23 -9 -5 -16 -2 -22 15 -26 19 -5 21 -10 15 -52 -12 -89 -13
-86 27 -89 34 -3 40 -8 73 -69 22 -40 35 -76 33 -92 -3 -23 2 -28 52 -45 72
-25 199 -26 255 -2 l40 18 -65 22 c-136 47 -208 99 -236 171 -22 58 -16 97 36
253 46 138 51 211 18 252 -18 22 -18 22 -18 1 0 -11 -10 -26 -22 -32 -18 -10
-24 -8 -35 7 -7 10 -13 21 -13 25 0 4 -6 9 -14 12 -9 4 -13 -2 -13 -19z"/>
<path d="M260 999 c0 -6 -9 -8 -22 -3 -20 6 -21 5 -10 -9 15 -18 42 -12 42 9
0 8 -2 14 -5 14 -3 0 -5 -5 -5 -11z"/>
<path d="M440 475 c13 -14 26 -25 28 -25 3 0 -5 11 -18 25 -13 14 -26 25 -28
25 -3 0 5 -11 18 -25z"/>
<path d="M1210 309 c-19 -12 -51 -38 -70 -59 -30 -33 -39 -37 -57 -30 -15 6
-23 18 -23 34 0 29 25 46 66 46 20 0 25 3 17 11 -25 25 -123 -23 -123 -61 0
-21 36 -50 62 -50 10 0 18 -4 18 -9 0 -19 -34 -35 -81 -36 -27 -1 -55 -7 -61
-13 -24 -24 6 -31 133 -29 118 2 132 4 145 22 17 23 15 56 -4 63 -7 2 -10 -2
-6 -11 11 -30 -14 -57 -54 -57 -59 0 -67 12 -29 47 17 16 53 40 79 52 81 38
111 101 49 101 -14 0 -42 -10 -61 -21z m60 -19 c-10 -19 -78 -65 -86 -58 -8 9
75 90 85 83 8 -4 8 -12 1 -25z m-245 -160 c-3 -5 -15 -10 -26 -10 -10 0 -19 5
-19 10 0 6 12 10 26 10 14 0 23 -4 19 -10z"/>
<path d="M63 290 c-26 -11 -47 -46 -39 -66 3 -8 17 -19 32 -24 24 -9 26 -14
21 -45 -5 -31 -3 -35 15 -35 35 0 96 22 118 42 29 27 26 78 -5 108 -27 25
-104 37 -142 20z m86 -11 c58 -20 68 -73 20 -113 -39 -33 -69 -34 -69 -3 0 14
11 28 31 40 32 18 35 40 5 45 -11 3 -16 -2 -14 -11 2 -9 -1 -15 -7 -14 -5 1
-10 12 -10 25 1 12 0 22 -1 22 -19 0 -30 -15 -26 -36 5 -26 3 -27 -22 -18 -28
11 -19 44 17 59 40 17 37 17 76 4z"/>
<path d="M428 286 c-12 -9 -14 -16 -6 -24 6 -6 9 -37 6 -76 -3 -59 -2 -66 14
-66 14 0 17 5 12 24 -9 36 10 39 41 6 25 -27 55 -40 55 -25 0 3 -14 19 -31 36
-31 31 -31 31 -10 45 27 19 28 54 2 54 -24 0 -36 -16 -20 -26 9 -5 7 -11 -6
-21 -29 -21 -34 -16 -37 36 -3 45 -5 48 -20 37z"/>
<path d="M571 258 c-5 -13 -5 -25 0 -28 4 -3 9 -28 11 -55 2 -35 8 -51 18 -53
14 -2 17 40 11 146 -2 21 -31 13 -40 -10z"/>
<path d="M290 243 c-52 -19 -64 -66 -27 -101 54 -51 157 -6 139 61 -8 32 -71
55 -112 40z m67 -37 c23 -20 26 -28 17 -43 -15 -24 -50 -28 -80 -9 -28 19 -31
51 -6 65 26 16 38 13 69 -13z"/>
<path d="M672 240 c-32 -14 -49 -54 -33 -83 7 -13 11 -29 9 -36 -2 -8 3 -16
10 -18 6 -3 12 0 12 6 0 6 16 11 36 11 38 0 74 15 74 31 0 6 -7 6 -19 -1 -21
-11 -61 -14 -61 -4 0 3 14 24 31 46 17 21 29 41 27 43 -10 11 -65 14 -86 5z
m48 -19 c0 -16 -41 -61 -51 -56 -13 9 -11 39 3 53 14 14 48 16 48 3z"/>
<path d="M794 243 c-9 -3 -8 -13 3 -34 9 -18 13 -42 9 -60 -4 -24 -2 -29 13
-29 16 0 18 6 14 43 -4 32 -1 46 12 57 14 11 18 11 25 0 5 -8 15 -10 26 -6 16
6 16 8 1 23 -14 14 -21 15 -43 4 -16 -7 -31 -8 -38 -3 -6 5 -16 7 -22 5z"/>
</g>
</svg>
